# xmcd
#
# Track frame offsets: 
#        150
#        20752
#        37520
#        50689
#        64678
#        77674
#        93194
#        111245
#        131622
#        149690
#
# Disc length: 2227 seconds
#
# Revision: 0
# Processed by: cddbd v1.5.2PL0 Copyright (c) Steve Scherf et al.
# Submitted via: ExactAudioCopy v0.99pb4
#
DISCID=8308b10a
DTITLE=KC and The Sunshine Band - Part 3
DYEAR=1976
DGENRE=Soul
TTITLE0=Baby I Love You (Yes I Do)
TTITLE1=Wrap Your Arms Around Me
TTITLE2=I Like To Do It
TTITLE3=(Shake, Shake, Shake) Shake Your Booty
TTITLE4=Let's Go Party
TTITLE5=Come On In
TTITLE6=I'm Your Boogie Man
TTITLE7=Keep It Comin' Love
TTITLE8=I'm Your Boogie Man (Single Version)
TTITLE9=Keep It Comin' Love (Single Version)
EXTD=
EXTT0=
EXTT1=
EXTT2=
EXTT3=
EXTT4=
EXTT5=
EXTT6=
EXTT7=
EXTT8=
EXTT9=
PLAYORDER=
